<svg xmlns="http://www.w3.org/2000/svg" xmlns:xlink="http://www.w3.org/1999/xlink" width="500" zoomAndPan="magnify" viewBox="0 0 375 374.999991" height="500" preserveAspectRatio="xMidYMid meet" version="1.0"><defs><clipPath id="a28cf86f2d"><path d="M 71.433594 33.882812 L 303.933594 33.882812 L 303.933594 341.382812 L 71.433594 341.382812 Z M 71.433594 33.882812 " clip-rule="nonzero"/></clipPath></defs><g clip-path="url(#a28cf86f2d)"><path fill="#000000" d="M 153.414062 154.84375 C 153.648438 155.238281 153.960938 155.574219 154.335938 155.835938 C 154.710938 156.09375 155.136719 156.269531 155.582031 156.351562 C 156.03125 156.433594 156.488281 156.417969 156.929688 156.304688 C 157.371094 156.191406 157.78125 155.984375 158.136719 155.699219 L 158.328125 155.546875 C 163.289062 151.351562 167.699219 147.097656 171.914062 142.488281 C 212.632812 97.941406 188.875 43.1875 188.683594 42.6875 C 188.113281 41.390625 187.984375 39.9375 188.324219 38.558594 C 188.664062 37.183594 189.453125 35.957031 190.558594 35.082031 C 191.71875 34.242188 193.125 33.824219 194.546875 33.894531 C 195.972656 33.96875 197.328125 34.523438 198.398438 35.476562 C 336.472656 164.933594 299.878906 263.546875 297.25 270.199219 C 286.175781 310.40625 242.199219 339.507812 190.015625 341.007812 C 188.273438 341.113281 186.941406 341.113281 185.410156 341.113281 C 123.808594 341.113281 71.433594 302.863281 71.433594 253.945312 L 71.433594 253.207031 C 71.433594 185.394531 132.292969 118.488281 135.015625 115.691406 C 135.824219 114.746094 136.921875 114.097656 138.136719 113.855469 C 139.351562 113.609375 140.613281 113.78125 141.71875 114.339844 C 142.839844 114.808594 143.789062 115.609375 144.441406 116.636719 C 145.097656 117.664062 145.425781 118.871094 145.386719 120.089844 C 144.84375 133.347656 147.519531 144.898438 153.414062 154.652344 Z M 153.414062 154.84375 " fill-opacity="1" fill-rule="nonzero"/></g></svg>