<svg xmlns="http://www.w3.org/2000/svg" xmlns:xlink="http://www.w3.org/1999/xlink" width="500" zoomAndPan="magnify" viewBox="0 0 375 374.999991" height="500" preserveAspectRatio="xMidYMid meet" version="1.0"><defs><clipPath id="0ed80963c6"><path d="M 71.433594 33.882812 L 303.933594 33.882812 L 303.933594 341.382812 L 71.433594 341.382812 Z M 71.433594 33.882812 " clip-rule="nonzero"/></clipPath></defs><g clip-path="url(#0ed80963c6)"><path fill="#ffffff" d="M 153.546875 154.949219 C 153.78125 155.34375 154.09375 155.679688 154.46875 155.941406 C 154.84375 156.203125 155.269531 156.378906 155.71875 156.457031 C 156.167969 156.539062 156.625 156.523438 157.066406 156.410156 C 157.507812 156.296875 157.921875 156.09375 158.277344 155.804688 L 158.46875 155.652344 C 163.4375 151.453125 167.851562 147.195312 172.078125 142.585938 C 212.863281 97.996094 189.066406 43.195312 188.875 42.695312 C 188.300781 41.398438 188.171875 39.941406 188.511719 38.5625 C 188.855469 37.183594 189.640625 35.960938 190.753906 35.085938 C 191.910156 34.242188 193.320312 33.824219 194.746094 33.894531 C 196.171875 33.96875 197.53125 34.527344 198.601562 35.476562 C 336.902344 165.050781 300.246094 263.746094 297.613281 270.40625 C 286.523438 310.652344 242.476562 339.777344 190.210938 341.277344 C 188.464844 341.382812 187.128906 341.382812 185.59375 341.382812 C 123.894531 341.382812 71.433594 303.097656 71.433594 254.140625 L 71.433594 253.398438 C 71.433594 185.527344 132.390625 118.5625 135.117188 115.765625 C 135.929688 114.816406 137.027344 114.167969 138.246094 113.925781 C 139.460938 113.679688 140.722656 113.851562 141.832031 114.410156 C 142.953125 114.878906 143.90625 115.683594 144.5625 116.710938 C 145.21875 117.738281 145.546875 118.945312 145.503906 120.164062 C 144.960938 133.4375 147.640625 144.996094 153.546875 154.757812 Z M 153.546875 154.949219 " fill-opacity="1" fill-rule="nonzero"/></g></svg>